<svg width="20" height="18" viewBox="0 0 20 18" fill="none" xmlns="http://www.w3.org/2000/svg">
<path d="M15 6.75V9.75C15 9.94891 14.921 10.1397 14.7803 10.2803C14.6397 10.421 14.4489 10.5 14.25 10.5H7.06031L8.03063 11.4694C8.10031 11.5391 8.15558 11.6218 8.1933 11.7128C8.23101 11.8039 8.25042 11.9015 8.25042 12C8.25042 12.0985 8.23101 12.1961 8.1933 12.2872C8.15558 12.3782 8.10031 12.4609 8.03063 12.5306C7.96094 12.6003 7.87822 12.6556 7.78717 12.6933C7.69613 12.731 7.59855 12.7504 7.5 12.7504C7.40145 12.7504 7.30387 12.731 7.21283 12.6933C7.12178 12.6556 7.03906 12.6003 6.96937 12.5306L4.71937 10.2806C4.64964 10.211 4.59432 10.1283 4.55658 10.0372C4.51884 9.94616 4.49941 9.84856 4.49941 9.75C4.49941 9.65144 4.51884 9.55384 4.55658 9.4628C4.59432 9.37175 4.64964 9.28903 4.71937 9.21937L6.96937 6.96937C7.11011 6.82864 7.30098 6.74958 7.5 6.74958C7.69902 6.74958 7.88989 6.82864 8.03063 6.96937C8.17136 7.11011 8.25042 7.30098 8.25042 7.5C8.25042 7.69902 8.17136 7.88989 8.03063 8.03063L7.06031 9H13.5V6.75C13.5 6.55109 13.579 6.36032 13.7197 6.21967C13.8603 6.07902 14.0511 6 14.25 6C14.4489 6 14.6397 6.07902 14.7803 6.21967C14.921 6.36032 15 6.55109 15 6.75ZM19.5 2.25V15.75C19.5 16.1478 19.342 16.5294 19.0607 16.8107C18.7794 17.092 18.3978 17.25 18 17.25H1.5C1.10218 17.25 0.720644 17.092 0.43934 16.8107C0.158035 16.5294 0 16.1478 0 15.75V2.25C0 1.85218 0.158035 1.47064 0.43934 1.18934C0.720644 0.908035 1.10218 0.75 1.5 0.75H18C18.3978 0.75 18.7794 0.908035 19.0607 1.18934C19.342 1.47064 19.5 1.85218 19.5 2.25ZM18 15.75V2.25H1.5V15.75H18Z" fill="#9CA3AF"/>
</svg>
