<svg width="18" height="18" viewBox="0 0 18 18" fill="none" xmlns="http://www.w3.org/2000/svg">
<path d="M9 0C7.21997 0 5.47991 0.527841 3.99987 1.51677C2.51983 2.50571 1.36628 3.91131 0.685088 5.55585C0.00389956 7.20038 -0.17433 9.00998 0.172936 10.7558C0.520203 12.5016 1.37737 14.1053 2.63604 15.364C3.89471 16.6226 5.49836 17.4798 7.24419 17.8271C8.99002 18.1743 10.7996 17.9961 12.4442 17.3149C14.0887 16.6337 15.4943 15.4802 16.4832 14.0001C17.4722 12.5201 18 10.78 18 9C17.9973 6.61389 17.0482 4.32631 15.3609 2.63907C13.6737 0.951842 11.3861 0.00274844 9 0ZM16.6154 9C16.616 9.70231 16.519 10.4013 16.3272 11.0769H12.9946C13.2069 9.70044 13.2069 8.29955 12.9946 6.92308H16.3272C16.519 7.59869 16.616 8.29768 16.6154 9ZM6.75 12.4615H11.25C10.8067 13.9142 10.0371 15.2462 9 16.3558C7.96334 15.2459 7.19378 13.914 6.75 12.4615ZM6.4125 11.0769C6.17482 9.70251 6.17482 8.29749 6.4125 6.92308H11.5944C11.8321 8.29749 11.8321 9.70251 11.5944 11.0769H6.4125ZM1.38462 9C1.38402 8.29768 1.481 7.59869 1.67279 6.92308H5.00539C4.79308 8.29955 4.79308 9.70044 5.00539 11.0769H1.67279C1.481 10.4013 1.38402 9.70231 1.38462 9ZM11.25 5.53846H6.75C7.19333 4.08583 7.96294 2.75381 9 1.64423C10.0367 2.7541 10.8062 4.08603 11.25 5.53846ZM15.7786 5.53846H12.6961C12.3075 4.11309 11.6528 2.77414 10.7663 1.59231C11.8373 1.84961 12.8401 2.33548 13.7059 3.01661C14.5716 3.69773 15.2799 4.55801 15.782 5.53846H15.7786ZM7.23375 1.59231C6.34725 2.77414 5.69246 4.11309 5.30395 5.53846H2.21798C2.72014 4.55801 3.42837 3.69773 4.29412 3.01661C5.15986 2.33548 6.16266 1.84961 7.23375 1.59231ZM2.21798 12.4615H5.30395C5.69246 13.8869 6.34725 15.2259 7.23375 16.4077C6.16266 16.1504 5.15986 15.6645 4.29412 14.9834C3.42837 14.3023 2.72014 13.442 2.21798 12.4615ZM10.7663 16.4077C11.6528 15.2259 12.3075 13.8869 12.6961 12.4615H15.782C15.2799 13.442 14.5716 14.3023 13.7059 14.9834C12.8401 15.6645 11.8373 16.1504 10.7663 16.4077Z" fill="#9CA3AF"/>
</svg>
