<svg width="20" height="20" viewBox="0 0 20 20" fill="none" xmlns="http://www.w3.org/2000/svg">
<path d="M19.4082 18.2427C17.9803 15.7743 15.78 14.0043 13.2122 13.1652C14.4824 12.4091 15.4692 11.2569 16.0212 9.88566C16.5731 8.51439 16.6597 6.99985 16.2676 5.57462C15.8755 4.14939 15.0264 2.89228 13.8506 1.99634C12.6749 1.1004 11.2376 0.615173 9.75941 0.615173C8.28122 0.615173 6.84391 1.1004 5.66818 1.99634C4.49246 2.89228 3.64334 4.14939 3.25123 5.57462C2.85911 6.99985 2.94569 8.51439 3.49765 9.88566C4.04961 11.2569 5.03644 12.4091 6.3066 13.1652C3.73878 14.0033 1.53847 15.7733 0.110659 18.2427C0.0582987 18.3281 0.0235684 18.4231 0.00851736 18.5221C-0.00653367 18.6211 -0.00160057 18.7222 0.0230256 18.8192C0.0476518 18.9163 0.0914723 19.0075 0.151901 19.0873C0.212331 19.1672 0.288144 19.2342 0.37487 19.2843C0.461595 19.3344 0.557476 19.3666 0.656854 19.379C0.756232 19.3915 0.857095 19.3839 0.953492 19.3567C1.04989 19.3295 1.13987 19.2833 1.21812 19.2208C1.29637 19.1583 1.3613 19.0807 1.4091 18.9927C3.17535 15.9402 6.29722 14.1177 9.75941 14.1177C13.2216 14.1177 16.3435 15.9402 18.1097 18.9927C18.1575 19.0807 18.2225 19.1583 18.3007 19.2208C18.379 19.2833 18.4689 19.3295 18.5653 19.3567C18.6617 19.3839 18.7626 19.3915 18.862 19.379C18.9613 19.3666 19.0572 19.3344 19.1439 19.2843C19.2307 19.2342 19.3065 19.1672 19.3669 19.0873C19.4273 19.0075 19.4712 18.9163 19.4958 18.8192C19.5204 18.7222 19.5254 18.6211 19.5103 18.5221C19.4952 18.4231 19.4605 18.3281 19.4082 18.2427ZM4.50941 7.36772C4.50941 6.32937 4.81732 5.31434 5.39419 4.45098C5.97107 3.58762 6.79101 2.91472 7.75032 2.51736C8.70963 2.12 9.76523 2.01603 10.7836 2.2186C11.802 2.42117 12.7375 2.92119 13.4717 3.65541C14.2059 4.38964 14.706 5.3251 14.9085 6.3435C15.1111 7.3619 15.0071 8.4175 14.6098 9.37681C14.2124 10.3361 13.5395 11.1561 12.6762 11.7329C11.8128 12.3098 10.7978 12.6177 9.75941 12.6177C8.36748 12.6162 7.03299 12.0626 6.04874 11.0784C5.0645 10.0941 4.5109 8.75965 4.50941 7.36772Z" fill="#9CA3AF"/>
</svg>
