<svg width="19" height="20" viewBox="0 0 19 20" fill="none" xmlns="http://www.w3.org/2000/svg">
<path d="M17.8472 13.2305L13.4306 11.2515L13.4184 11.2458C13.1892 11.1478 12.939 11.1084 12.6907 11.1313C12.4424 11.1543 12.2037 11.2387 11.9963 11.3771C11.9718 11.3932 11.9484 11.4108 11.9259 11.4296L9.64407 13.3749C8.19845 12.6727 6.70595 11.1915 6.00376 9.76459L7.95188 7.44803C7.97063 7.42459 7.98845 7.40115 8.00532 7.37584C8.14072 7.16894 8.22287 6.93177 8.24446 6.68544C8.26605 6.43911 8.22641 6.19127 8.12907 5.96396V5.95271L6.14438 1.52865C6.0157 1.23171 5.79444 0.984353 5.51362 0.8235C5.2328 0.662647 4.9075 0.596928 4.58626 0.636152C3.31592 0.803314 2.14986 1.42718 1.30588 2.39124C0.461903 3.3553 -0.00228837 4.59361 8.4831e-06 5.8749C8.4831e-06 13.3187 6.05626 19.3749 13.5 19.3749C14.7813 19.3772 16.0196 18.913 16.9837 18.069C17.9477 17.225 18.5716 16.059 18.7388 14.7887C18.7781 14.4675 18.7125 14.1423 18.5518 13.8615C18.3911 13.5807 18.144 13.3594 17.8472 13.2305ZM13.5 17.8749C10.3185 17.8714 7.26825 16.606 5.01856 14.3563C2.76888 12.1067 1.50348 9.05643 1.50001 5.8749C1.49648 4.95942 1.82631 4.07396 2.42789 3.38388C3.02947 2.69379 3.86167 2.24628 4.76907 2.1249C4.7687 2.12864 4.7687 2.13241 4.76907 2.13615L6.73782 6.5424L4.80001 8.86178C4.78034 8.88441 4.76247 8.90854 4.74657 8.93396C4.60549 9.15045 4.52273 9.39971 4.5063 9.65758C4.48988 9.91546 4.54035 10.1732 4.65282 10.4058C5.5022 12.143 7.25251 13.8802 9.00845 14.7287C9.24279 14.8401 9.50203 14.8888 9.76083 14.8701C10.0196 14.8513 10.2692 14.7658 10.485 14.6218C10.5091 14.6056 10.5322 14.588 10.5544 14.5693L12.8334 12.6249L17.2397 14.5983C17.2397 14.5983 17.2472 14.5983 17.25 14.5983C17.1301 15.507 16.6833 16.3409 15.9931 16.944C15.3028 17.547 14.4166 17.878 13.5 17.8749Z" fill="#9CA3AF"/>
</svg>
