<svg width="17" height="10" viewBox="0 0 17 10" fill="none" xmlns="http://www.w3.org/2000/svg">
<path d="M16.281 1.78104L8.78104 9.28104C8.71139 9.35077 8.62867 9.40609 8.53762 9.44384C8.44657 9.48158 8.34898 9.50101 8.25042 9.50101C8.15186 9.50101 8.05426 9.48158 7.96321 9.44384C7.87216 9.40609 7.78945 9.35077 7.71979 9.28104L0.219792 1.78104C0.0790615 1.64031 0 1.44944 0 1.25042C0 1.05139 0.0790615 0.860522 0.219792 0.719792C0.360523 0.579061 0.551394 0.5 0.750417 0.5C0.94944 0.5 1.14031 0.579061 1.28104 0.719792L8.25042 7.6901L15.2198 0.719792C15.2895 0.650109 15.3722 0.594834 15.4632 0.557122C15.5543 0.51941 15.6519 0.5 15.7504 0.5C15.849 0.5 15.9465 0.51941 16.0376 0.557122C16.1286 0.594834 16.2114 0.650109 16.281 0.719792C16.3507 0.789474 16.406 0.8722 16.4437 0.963245C16.4814 1.05429 16.5008 1.15187 16.5008 1.25042C16.5008 1.34896 16.4814 1.44654 16.4437 1.53759C16.406 1.62863 16.3507 1.71136 16.281 1.78104Z" fill="#9CA3AF"/>
</svg>
